<svg width="92" height="79" viewBox="0 0 92 79" fill="none" xmlns="http://www.w3.org/2000/svg">
<path d="M20.7958 31.4807C20.7958 54.7932 20.7659 58.4103 20.5927 58.4833C20.4762 58.5264 19.7354 58.3522 18.9498 58.0782C17.7296 57.6732 17.3383 57.6002 16.148 57.6002C14.4648 57.6151 13.3328 57.8906 11.5629 58.7721C7.13619 60.9582 3.97145 64.9804 3.95801 68.4099C3.95801 70.5378 5.4082 72.9249 7.296 73.8795C7.85457 74.1773 8.3519 74.3679 9.43768 74.4513C10.4883 74.5273 11.5443 74.4536 12.574 74.2324C14.0392 73.9256 14.883 73.531 16.3825 72.6494C18.6123 71.3181 19.8056 69.835 21.0243 67.7874C21.461 67.0537 21.7871 66.2599 21.9921 65.4316C22.0227 65.3246 22.0363 65.2136 22.0324 65.1025L22.1041 52.4627C22.1429 46.1517 22.2176 40.8027 22.2744 39.6829C22.2775 39.6167 22.3042 39.5539 22.3496 39.5056C22.3951 39.4572 22.4563 39.4267 22.5223 39.4193C24.2772 39.2227 35.4755 39.2272 35.7174 39.4684C35.9355 39.6859 35.9504 43.303 35.7324 44.8949C35.3844 47.5143 34.1074 51.7538 32.7573 54.8795C32.0434 56.5369 31.9852 56.805 32.4093 56.805C32.6259 56.805 32.8574 56.4863 33.3666 55.4871C34.7057 52.7448 35.8079 49.8937 36.6613 46.9648C36.9889 45.7457 37.2422 44.5079 37.42 43.2583C37.4246 43.2051 37.414 43.1517 37.3894 43.1043C37.3648 43.0569 37.3273 43.0173 37.2811 42.9903C37.2079 42.9486 37.1139 42.8994 37.0242 42.8547L36.8405 42.7594C36.7955 42.7353 36.7578 42.6994 36.7315 42.6556C36.7052 42.6118 36.6913 42.5618 36.6912 42.5108L36.6434 38.2206C36.615 34.255 36.6434 33.7189 36.8465 33.4881C37.0496 33.2573 37.0496 33.1411 36.615 31.9543C35.3082 28.3222 33.5518 25.746 27.9945 19.3219C27.8198 19.1194 27.2821 18.4388 26.7892 17.8015C24.0755 14.2276 23.1466 11.97 22.5372 7.39837C22.1161 4.31585 22.2176 4.569 21.4485 4.569H21.0796C21.0043 4.569 20.9321 4.59881 20.8789 4.65187C20.8257 4.70493 20.7958 4.7769 20.7958 4.85194V31.4807ZM24.0606 23.2473C24.9896 23.493 27.4957 24.796 28.5157 25.5629C29.7145 26.4625 30.801 27.5019 31.7522 28.6588C32.0718 29.0504 32.363 29.4123 32.4063 29.4555C32.6229 29.6729 33.3353 30.8731 33.8998 32.0019C34.6824 33.5655 35.4172 35.9228 35.344 36.4693H35.235L28.8488 36.5125C22.9703 36.5408 22.4491 36.5274 22.2893 36.2951C22.14 36.1075 22.0996 34.5737 22.0996 29.798C22.0996 26.3536 22.1429 23.4453 22.1877 23.3158C22.2908 23.0447 23.1899 23.0164 24.0606 23.2473Z" fill="#EA000A"/>
<path d="M37.4781 34.8867H40.6145C41.1242 34.8686 41.6322 34.9537 42.108 35.1368C42.4782 35.2959 42.8031 35.544 43.0534 35.8591C43.3078 36.1822 43.4924 36.5544 43.5955 36.9521C43.7094 37.3836 43.7656 37.8282 43.7628 38.2744C43.7628 39.0021 43.6797 39.5675 43.5134 39.9706C43.3598 40.3539 43.1232 40.6987 42.8204 40.9802C42.5518 41.2356 42.2247 41.4216 41.8676 41.5223C41.4578 41.6385 41.0345 41.701 40.6085 41.7084H37.4722L37.4781 34.8867ZM39.5915 36.4339V40.1567H39.5123C39.9544 40.1567 40.2685 40.1071 40.4547 40.0078C40.6563 39.8931 40.8115 39.712 40.8938 39.4955C40.9998 39.2528 41.0521 38.8567 41.0521 38.3117C41.0521 37.588 40.9341 37.0916 40.6981 36.8225C40.4607 36.556 40.0694 36.422 39.5213 36.422L39.5915 36.4339Z" fill="#EA000A" stroke="#EA000A" stroke-miterlimit="10"/>
<path d="M45.6774 34.8866H48.8138C49.3234 34.8688 49.8314 34.9539 50.3073 35.1368C50.677 35.2958 51.0014 35.544 51.2512 35.859C51.5055 36.1821 51.6901 36.5543 51.7933 36.952C51.9071 37.3836 51.9634 37.8282 51.9606 38.2744C51.9606 39.0021 51.8774 39.5674 51.7112 39.9705C51.5576 40.3538 51.3209 40.6986 51.0182 40.9801C50.7501 41.2354 50.4235 41.4215 50.0668 41.5222C49.6565 41.6384 49.2328 41.7009 48.8063 41.7083H45.6699L45.6774 34.8866ZM47.7922 36.4338V40.1566H47.713C48.1551 40.1566 48.4693 40.107 48.6554 40.0077C48.857 39.893 49.0123 39.7119 49.0945 39.4955C49.2006 39.2527 49.2529 38.8566 49.2529 38.3116C49.2529 37.5879 49.1349 37.0915 48.8989 36.8225C48.6629 36.5534 48.2701 36.4239 47.7205 36.4338H47.7922Z" fill="#EA000A" stroke="#EA000A" stroke-miterlimit="10"/>
<path d="M53.9321 34.8862H56.0514V41.708H53.9321V34.8862Z" fill="#EA000A" stroke="#EA000A" stroke-miterlimit="10"/>
<path d="M57.9644 39.4504L59.9761 39.3253C59.9974 39.5925 60.0891 39.8494 60.242 40.0699C60.3535 40.2077 60.4963 40.3172 60.6586 40.3892C60.8209 40.4611 60.998 40.4936 61.1754 40.4839C61.426 40.5005 61.674 40.4253 61.8729 40.2724C61.9478 40.2139 62.0087 40.1394 62.0511 40.0543C62.0935 39.9693 62.1163 39.8759 62.1178 39.781C62.116 39.6897 62.0942 39.5998 62.054 39.5178C62.0138 39.4357 61.956 39.3634 61.8848 39.306C61.7355 39.1675 61.3681 39.0349 60.802 38.9113C59.8741 38.7029 59.2129 38.4264 58.8186 38.0819C58.6262 37.9214 58.4725 37.7197 58.3691 37.4917C58.2657 37.2638 58.2151 37.0156 58.2212 36.7655C58.2202 36.4122 58.3241 36.0666 58.5199 35.7722C58.7468 35.4416 59.067 35.1856 59.4399 35.0366C59.8492 34.8579 60.4102 34.7686 61.1231 34.7686C61.9973 34.7686 62.6639 34.9309 63.1229 35.2555C63.5819 35.5801 63.8547 36.0959 63.9414 36.8027L61.949 36.9189C61.9431 36.7918 61.9111 36.6673 61.8548 36.5531C61.7986 36.4389 61.7195 36.3374 61.6222 36.255C61.525 36.1726 61.4119 36.111 61.2898 36.0741C61.1677 36.0372 61.0393 36.0256 60.9125 36.0403C60.7156 36.0243 60.5193 36.0769 60.357 36.1892C60.2989 36.2341 60.2519 36.2917 60.2195 36.3575C60.1872 36.4233 60.1703 36.4956 60.1703 36.5689C60.1707 36.6266 60.1844 36.6835 60.2103 36.7351C60.2362 36.7867 60.2736 36.8318 60.3196 36.8668C60.4197 36.9561 60.6557 37.041 61.029 37.1184C61.953 37.317 62.6151 37.5155 63.0154 37.7141C63.3717 37.8795 63.6739 38.1417 63.8876 38.4706C64.0709 38.7753 64.1655 39.1249 64.1609 39.4802C64.1633 39.911 64.0364 40.3326 63.7965 40.6909C63.5485 41.0652 63.1945 41.3575 62.7794 41.5307C62.2571 41.7369 61.698 41.8342 61.1366 41.8166C59.9736 41.8166 59.1676 41.5933 58.7186 41.1465C58.2694 40.6909 58.0014 40.0882 57.9644 39.4504Z" fill="#EA000A" stroke="#EA000A" stroke-width="0.5" stroke-miterlimit="10"/>
<path d="M45.4023 43.5088H48.1833L49.2556 47.6605L50.3309 43.5088H53.1103V50.3305H51.3764V45.129L50.0322 50.3305H48.47L47.1378 45.129V50.3305H45.4023V43.5088Z" fill="#EA000A" stroke="#EA000A" stroke-width="0.5" stroke-miterlimit="10"/>
<path d="M58.8444 43.5088H61.4027V47.5741C61.4054 47.9624 61.3412 48.3482 61.2131 48.7148C61.0886 49.0695 60.8842 49.3909 60.6157 49.6545C60.3783 49.9022 60.0892 50.0949 59.7688 50.2188C59.2928 50.3813 58.7918 50.4584 58.2888 50.4467C57.9248 50.445 57.5613 50.4221 57.2 50.3782C56.857 50.3452 56.5227 50.2514 56.2128 50.1012C55.9359 49.9524 55.6897 49.7528 55.487 49.513C55.2837 49.2853 55.131 49.0174 55.0389 48.7267C54.9188 48.3538 54.8529 47.9657 54.8433 47.5741V43.5088H57.4016V47.6709C57.4016 48.0417 57.4255 48.2934 57.5614 48.5421C57.6071 48.6515 57.6852 48.7444 57.7853 48.8083C57.8854 48.8722 58.0027 48.904 58.1215 48.8995C58.4008 48.8995 58.5367 48.7997 58.6816 48.5465C58.8264 48.2934 58.8444 48.0492 58.8444 47.6709V43.5088Z" fill="#EA000A" stroke="#EA000A" stroke-miterlimit="10"/>
<path d="M62.811 48.0744L64.8213 47.9479C64.8435 48.2151 64.9357 48.4719 65.0886 48.6924C65.1998 48.8307 65.3426 48.9404 65.505 49.0124C65.6673 49.0844 65.8446 49.1166 66.0221 49.1064C66.2726 49.1227 66.5205 49.0476 66.7195 48.8949C66.7946 48.8391 66.8557 48.7669 66.8982 48.6837C66.9407 48.6005 66.9634 48.5087 66.9646 48.4154C66.9657 48.3221 66.9453 48.2297 66.9049 48.1456C66.8645 48.0614 66.8051 47.9876 66.7315 47.93C66.5821 47.79 66.2147 47.659 65.6487 47.5339C64.7217 47.3264 64.0601 47.0504 63.6638 46.7059C63.4716 46.5452 63.3181 46.3434 63.2147 46.1156C63.1113 45.8877 63.0606 45.6396 63.0664 45.3895C63.068 45.0351 63.1745 44.689 63.3726 44.3948C63.5996 44.0646 63.9198 43.8091 64.2926 43.6606C64.7018 43.4819 65.2624 43.3926 65.9743 43.3926C66.8495 43.3926 67.5161 43.5549 67.9741 43.8795C68.4341 44.2027 68.7059 44.7194 68.794 45.4267L66.8002 45.5429C66.7945 45.4158 66.7626 45.2913 66.7065 45.177C66.6505 45.0628 66.5715 44.9612 66.4744 44.8787C66.3774 44.7961 66.2643 44.7344 66.1423 44.6972C66.0203 44.6601 65.8919 44.6484 65.7652 44.6628C65.5673 44.6482 65.3706 44.7035 65.2096 44.8192C65.1513 44.8636 65.1041 44.9208 65.0717 44.9864C65.0393 45.0521 65.0226 45.1243 65.0229 45.1974C65.0234 45.2551 65.0371 45.312 65.063 45.3636C65.0888 45.4152 65.1262 45.4602 65.1723 45.4952C65.2718 45.5866 65.5083 45.6705 65.8817 45.7469C66.8067 45.9455 67.4688 46.1465 67.868 46.35C68.2243 46.5154 68.5266 46.7776 68.7403 47.1065C68.9235 47.4112 69.0182 47.7608 69.0136 48.1161C69.0157 48.5464 68.8888 48.9675 68.6492 49.3253C68.4008 49.6993 68.0469 49.9916 67.6321 50.1652C67.1097 50.3712 66.5507 50.4685 65.9892 50.4511C64.8243 50.4511 64.0183 50.2277 63.5712 49.781C63.1176 49.3236 62.8472 48.7167 62.811 48.0744Z" fill="#EA000A" stroke="#EA000A" stroke-width="0.5" stroke-miterlimit="10"/>
<path d="M70.5488 43.5088H72.6666V50.3305H70.5488V43.5088Z" fill="#EA000A" stroke="#EA000A" stroke-miterlimit="10"/>
<path d="M79.1215 47.5384L80.9749 48.0968C80.8722 48.566 80.6718 49.0084 80.3865 49.3953C80.1266 49.7374 79.7838 50.0079 79.3903 50.1816C78.9095 50.374 78.3937 50.4643 77.8759 50.4467C77.1321 50.4467 76.5243 50.3389 76.0523 50.1235C75.5422 49.8729 75.1177 49.4776 74.8321 48.9873C74.4906 48.4452 74.3194 47.7503 74.3184 46.9025C74.3184 45.7737 74.6171 44.9066 75.2145 44.301C75.8119 43.6954 76.6637 43.3921 77.7699 43.3911C78.6311 43.3911 79.3087 43.5648 79.8025 43.9123C80.2964 44.2598 80.6653 44.7949 80.9092 45.5176L79.0423 45.9316C78.998 45.7698 78.9285 45.6161 78.8362 45.4759C78.7235 45.3193 78.575 45.1917 78.4031 45.1036C78.2246 45.0151 78.0275 44.9702 77.8281 44.9726C77.61 44.9636 77.3934 45.0122 77.2002 45.1134C77.0069 45.2146 76.8438 45.3648 76.7274 45.5489C76.5352 45.8348 76.4386 46.2815 76.4376 46.8891C76.4376 47.6456 76.5526 48.1643 76.7826 48.4453C76.9008 48.5854 77.05 48.6963 77.2185 48.7692C77.3869 48.842 77.57 48.8749 77.7534 48.8652C78.1587 48.8652 78.4643 48.752 78.6704 48.5257C78.9049 48.2416 79.0604 47.9012 79.1215 47.5384Z" fill="#EA000A" stroke="#EA000A" stroke-miterlimit="10"/>
<path d="M56.5351 13.1108H51.4243V14.463H56.5351V13.1108Z" fill="#EA000A"/>
<path d="M56.5351 17.1196H51.4243V18.4896H56.5351V17.1196Z" fill="#EA000A"/>
<path d="M56.5351 20.8916H51.4243V22.4775H56.5351V20.8916Z" fill="#EA000A"/>
<path d="M62.6855 17.1196H57.5747V18.4718H62.6855V17.1196Z" fill="#EA000A"/>
<path d="M62.6855 20.8916H57.5747V22.5133H62.6855V20.8916Z" fill="#EA000A"/>
<path d="M68.8359 20.8916H63.7251V22.4775H68.8359V20.8916Z" fill="#EA000A"/>
<path d="M81.1689 20.8916H76.0581V22.4775H81.1689V20.8916Z" fill="#EA000A"/>
<path d="M50.3832 20.8916H45.2725V22.4775H50.3832V20.8916Z" fill="#EA000A"/>
<path d="M56.5351 24.1572H51.4243V26.0499H56.5351V24.1572Z" fill="#EA000A"/>
<path d="M62.6855 24.1572H57.5747V26.0916H62.6855V24.1572Z" fill="#EA000A"/>
<path d="M68.8359 24.1572H63.7251V26.0499H68.8359V24.1572Z" fill="#EA000A"/>
<path d="M75.0248 24.1572H69.9141V26.0499H75.0248V24.1572Z" fill="#EA000A"/>
<path d="M81.1689 24.1572H76.0581V26.0499H81.1689V24.1572Z" fill="#EA000A"/>
<path d="M50.3832 24.1572H45.2725V26.0499H50.3832V24.1572Z" fill="#EA000A"/>
<path d="M56.5351 27.5776H51.4243V29.4703H56.5351V27.5776Z" fill="#EA000A"/>
<path d="M62.6855 27.5776H57.5747V29.512H62.6855V27.5776Z" fill="#EA000A"/>
<path d="M68.8359 27.5776H63.7251V29.4703H68.8359V27.5776Z" fill="#EA000A"/>
<path d="M75.0248 27.5776H69.9141V29.4703H75.0248V27.5776Z" fill="#EA000A"/>
<path d="M81.1689 27.5776H76.0581V29.4703H81.1689V27.5776Z" fill="#EA000A"/>
<path d="M87.4194 27.5776H82.3086V29.4703H87.4194V27.5776Z" fill="#EA000A"/>
<path d="M50.3832 27.5776H45.2725V29.4703H50.3832V27.5776Z" fill="#EA000A"/>
<path d="M56.5351 31H51.4243V32.8927H56.5351V31Z" fill="#EA000A"/>
<path d="M62.6855 31H57.5747V32.9344H62.6855V31Z" fill="#EA000A"/>
<path d="M68.8359 31H63.7251V32.8927H68.8359V31Z" fill="#EA000A"/>
<path d="M75.0248 31H69.9141V32.8927H75.0248V31Z" fill="#EA000A"/>
<path d="M81.1689 31H76.0581V32.8927H81.1689V31Z" fill="#EA000A"/>
<path d="M87.4194 31H82.3086V32.8927H87.4194V31Z" fill="#EA000A"/>
<path d="M50.3832 31H45.2725V32.8927H50.3832V31Z" fill="#EA000A"/>
</svg>
